<?xml version="1.0" encoding="UTF-8"?>
<svg id="Camada_2" data-name="Camada 2" xmlns="http://www.w3.org/2000/svg" viewBox="0 0 333.86 168.18">
  <defs>
    <style>
      .cls-1 {
        fill: #fff;
      }

      .cls-2 {
        stroke-width: 1.6px;
      }

      .cls-2, .cls-3 {
        fill: none;
        stroke: #fff;
        stroke-miterlimit: 10;
      }

      .cls-3 {
        stroke-width: 1.53px;
      }
    </style>
  </defs>
  <g id="Conteudo">
    <g>
      <rect width="333.86" height="168.18"/>
      <g>
        <path class="cls-2" d="M25.51,86.42c2.41-18.3,18.07-32.42,37.03-32.42,17.37,0,31.97,11.86,36.15,27.91"/>
        <path class="cls-2" d="M76.36,125.47c0,.78-.02,1.55-.07,2.32-4.25,1.69-8.89,2.61-13.74,2.61-20.63,0-37.35-16.72-37.35-37.35,0-.78.02-1.55.07-2.32,4.25-1.69,8.89-2.61,13.74-2.61,20.63,0,37.35,16.72,37.35,37.35Z"/>
        <path class="cls-2" d="M63.99,95.42c8.39-8.23,20.52-12.37,32.96-10.08.76.14,1.52.31,2.27.49.88,4.49.95,9.22.07,13.99-2.27,12.29-10.31,22.05-20.81,27"/>
        <path class="cls-2" d="M56.92,50.36h10.56c.73,0,1.4-.41,1.74-1.06l3.19-6.11c.4-.76.25-1.69-.35-2.3l-.24-.24c-.37-.37-.87-.57-1.39-.57h-16.89c-.7,0-1.35.37-1.7.98h0c-.34.59-.35,1.31-.03,1.9l3.38,6.35c.34.64,1.01,1.04,1.73,1.04Z"/>
        <path class="cls-3" d="M59.4,29.33h5.4c.71,0,1.28.57,1.28,1.28v6.67h-7.95v-6.67c0-.71.57-1.28,1.28-1.28Z"/>
        <circle class="cls-2" cx="62.1" cy="33.31" r="1.21"/>
      </g>
      <path class="cls-1" d="M114.13,65.61c0-1.83.54-3.29,1.62-4.37,1.08-1.08,2.63-1.62,4.64-1.62h8.29c8.44,0,12.66,3.43,12.66,10.28,0,3.25-.98,5.73-2.93,7.46-1.95,1.73-4.79,2.59-8.52,2.59l8.11,8.29c.33.33.5.77.5,1.31,0,.6-.24,1.1-.72,1.49-.45.36-.92.54-1.4.54-.72,0-1.37-.33-1.94-.99l-10.19-10.59h-5.59v9.42c0,.69-.21,1.23-.63,1.62-.42.39-.98.59-1.67.59s-1.24-.2-1.65-.59-.61-.93-.61-1.62v-23.8ZM128.78,76.39c2.79,0,4.82-.5,6.08-1.49,1.26-.99,1.89-2.66,1.89-5s-.65-4.08-1.96-5.12c-1.31-1.04-3.31-1.56-6.02-1.56h-7.89c-.66,0-1.19.22-1.6.65-.41.44-.61,1.03-.61,1.78v10.73h10.1Z"/>
      <path class="cls-1" d="M145.2,91.06c-.38-.38-.56-.89-.56-1.56v-16.99c0-4.18,1.19-7.44,3.56-9.8,2.37-2.36,5.65-3.54,9.83-3.54,2.76,0,5.16.53,7.19,1.6,2.03,1.07,3.58,2.61,4.64,4.62,1.07,2.01,1.6,4.39,1.6,7.12v16.99c0,.66-.2,1.18-.59,1.56-.39.38-.92.56-1.58.56s-1.14-.19-1.53-.56c-.39-.38-.59-.89-.59-1.56v-9.19h-18.3v9.19c0,.66-.19,1.18-.56,1.56-.38.38-.89.56-1.55.56s-1.18-.19-1.55-.56ZM167.17,76.88v-4.51c0-3.12-.78-5.52-2.34-7.19-1.56-1.67-3.83-2.5-6.81-2.5s-5.24.82-6.81,2.46c-1.56,1.64-2.34,4.05-2.34,7.23v4.51h18.3Z"/>
      <path class="cls-1" d="M177.68,91.06c-.38-.38-.56-.89-.56-1.56v-28.21c0-.66.19-1.18.56-1.56.38-.38.88-.56,1.51-.56s1.19.19,1.58.56c.39.38.59.89.59,1.56v28.21c0,.66-.2,1.18-.59,1.56-.39.38-.92.56-1.58.56s-1.13-.19-1.51-.56ZM177.84,54.62c0-.21.04-.42.14-.63l2.7-6.4c.39-.96.98-1.44,1.76-1.44.3,0,.66.09,1.08.27.78.42,1.17.93,1.17,1.53,0,.3-.11.63-.32.99l-3.56,6.22c-.36.57-.86.86-1.49.86-.21,0-.44-.05-.68-.14-.54-.27-.81-.69-.81-1.26Z"/>
      <path class="cls-1" d="M188.38,90c-.95-.78-1.42-1.89-1.42-3.34,0-1.08.22-2.01.65-2.79.44-.78,1.22-1.61,2.37-2.48l18.3-14.56c.51-.42.87-.8,1.08-1.15.21-.35.32-.77.32-1.29,0-.45-.14-.79-.41-1.01s-.72-.34-1.35-.34h-17.76c-.69,0-1.26-.15-1.69-.45s-.65-.71-.65-1.22c0-.57.21-1.01.63-1.31.42-.3.99-.45,1.71-.45h18.48c1.68,0,3,.38,3.94,1.13.95.75,1.42,1.88,1.42,3.38,0,1.14-.21,2.08-.63,2.82-.42.74-1.22,1.56-2.39,2.46l-18.34,14.56c-.51.42-.86.81-1.06,1.17-.2.36-.29.8-.29,1.31,0,.87.68,1.31,2.03,1.31h18.75c.66,0,1.21.15,1.65.45.44.3.65.71.65,1.22,0,.57-.22,1.01-.65,1.31s-.98.45-1.65.45h-19.74c-1.68,0-3-.39-3.94-1.17Z"/>
      <path class="cls-1" d="M220.24,89.59c-1.11-1.05-1.67-2.51-1.67-4.37v-19.79c0-1.8.54-3.22,1.62-4.26,1.08-1.04,2.58-1.55,4.51-1.55h13.97c1.41,0,2.12.59,2.12,1.76,0,.51-.19.92-.56,1.22-.38.3-.89.45-1.55.45h-13.61c-.69,0-1.24.23-1.65.68-.41.45-.61,1.05-.61,1.8v7.8h12.44c1.41,0,2.12.59,2.12,1.76,0,.54-.19.96-.56,1.26-.38.3-.89.45-1.55.45h-12.44v8.47c0,.75.2,1.35.61,1.8.41.45.95.68,1.65.68h14.6c.69,0,1.22.14,1.58.43.36.29.54.71.54,1.28,0,.54-.19.96-.56,1.26s-.89.45-1.55.45h-14.83c-1.95,0-3.49-.53-4.6-1.58Z"/>
      <path class="cls-1" d="M251.61,90.16c-2.48-.98-4.48-2.34-6.02-4.08-.3-.39-.45-.77-.45-1.13,0-.57.25-1.07.77-1.49.33-.27.68-.41,1.04-.41.54,0,1.1.29,1.67.86,1.29,1.32,2.89,2.35,4.8,3.09,1.91.74,4,1.1,6.29,1.1,2.4,0,4.27-.44,5.61-1.33,1.34-.89,2.01-2.13,2.01-3.72,0-1.47-.66-2.67-1.98-3.58s-3.59-1.72-6.81-2.41c-4.42-.99-7.6-2.24-9.56-3.74-1.95-1.5-2.93-3.49-2.93-5.95,0-1.65.5-3.09,1.49-4.33.99-1.23,2.4-2.19,4.24-2.86,1.83-.68,3.97-1.01,6.4-1.01,2.76,0,5.24.47,7.44,1.42,2.19.95,3.79,2.23,4.78,3.85.24.36.36.74.36,1.13,0,.6-.29,1.1-.86,1.49-.27.18-.59.27-.95.27-.33,0-.66-.08-.99-.25-.33-.16-.6-.38-.81-.65-.87-1.2-2.08-2.13-3.63-2.77-1.55-.65-3.33-.97-5.34-.97-2.55,0-4.5.4-5.84,1.19-1.34.8-2.01,1.96-2.01,3.49,0,.93.27,1.74.81,2.41.54.68,1.43,1.28,2.66,1.8,1.23.53,2.93,1.04,5.09,1.55,4.54,1.05,7.8,2.35,9.78,3.9,1.98,1.55,2.97,3.55,2.97,6.02,0,1.74-.49,3.25-1.46,4.53-.98,1.28-2.37,2.27-4.17,2.97-1.8.71-3.91,1.06-6.31,1.06-2.92,0-5.61-.49-8.09-1.46Z"/>
      <path class="cls-1" d="M287.82,90.75c-1.41-.58-2.48-1.42-3.23-2.5-.74-1.09-1.11-2.35-1.11-3.79,0-1.67.53-3.11,1.58-4.32,1.05-1.21,2.55-2.18,4.49-2.92-.94-.73-1.66-1.49-2.18-2.28s-.77-1.66-.77-2.62c0-1.67.54-2.98,1.63-3.94,1.09-.96,2.59-1.44,4.51-1.44,1.81,0,3.25.48,4.34,1.44,1.09.96,1.63,2.29,1.63,3.98,0,1.14-.37,2.2-1.1,3.16-.73.96-1.78,1.77-3.16,2.44l6.31,5.97c.48-.82.83-1.64,1.06-2.45.23-.81.4-1.77.51-2.86.05-.43.2-.78.46-1.03.26-.25.6-.38,1.01-.38.55,0,.97.18,1.27.53.3.35.42.76.38,1.22-.43,2.95-1.25,5.32-2.44,7.1l3.33,3.16c.32.32.48.65.48.99s-.16.67-.48.99c-.27.27-.61.41-.99.41-.37,0-.66-.11-.89-.34l-3.33-3.12c-.8.85-1.9,1.64-3.31,2.38-1.41.74-3.08,1.11-5.03,1.11s-3.58-.29-4.99-.87ZM296.45,88.28c1.12-.49,2.02-1.2,2.71-2.11l-7.41-7c-1.69.5-2.97,1.18-3.84,2.02-.87.85-1.3,1.93-1.3,3.26s.56,2.45,1.68,3.29c1.12.85,2.62,1.27,4.49,1.27,1.33,0,2.55-.25,3.67-.74ZM295.63,72.31c0-.87-.26-1.55-.79-2.04-.53-.49-1.25-.74-2.16-.74s-1.66.25-2.18.74c-.51.49-.77,1.16-.77,2.01,0,.73.22,1.38.65,1.94.43.56,1.11,1.2,2.02,1.9,2.15-.98,3.22-2.25,3.22-3.81Z"/>
      <path class="cls-1" d="M114.61,129.83c-.38-.38-.56-.89-.56-1.56v-16.99c0-4.18,1.19-7.44,3.56-9.8,2.37-2.36,5.65-3.54,9.83-3.54,2.76,0,5.16.53,7.19,1.6,2.03,1.07,3.58,2.61,4.64,4.62,1.07,2.01,1.6,4.39,1.6,7.12v16.99c0,.66-.2,1.18-.59,1.56-.39.38-.92.56-1.58.56s-1.14-.19-1.53-.56c-.39-.38-.59-.89-.59-1.56v-9.19h-18.3v9.19c0,.66-.19,1.18-.56,1.56-.38.38-.89.56-1.56.56s-1.18-.19-1.55-.56ZM136.58,115.66v-4.51c0-3.12-.78-5.52-2.34-7.19-1.56-1.67-3.83-2.5-6.81-2.5s-5.24.82-6.81,2.46c-1.56,1.64-2.34,4.05-2.34,7.23v4.51h18.3Z"/>
      <path class="cls-1" d="M144.99,104.39c0-1.83.54-3.29,1.62-4.37,1.08-1.08,2.63-1.62,4.64-1.62h8.29c8.44,0,12.67,3.43,12.67,10.28,0,3.25-.98,5.73-2.93,7.46-1.95,1.73-4.79,2.59-8.52,2.59l8.11,8.29c.33.33.5.77.5,1.31,0,.6-.24,1.1-.72,1.49-.45.36-.92.54-1.4.54-.72,0-1.37-.33-1.94-.99l-10.19-10.59h-5.59v9.42c0,.69-.21,1.23-.63,1.62s-.98.59-1.67.59-1.24-.2-1.65-.59-.61-.93-.61-1.62v-23.8ZM159.64,115.16c2.79,0,4.82-.5,6.08-1.49,1.26-.99,1.89-2.66,1.89-5s-.65-4.08-1.96-5.12-3.31-1.56-6.02-1.56h-7.89c-.66,0-1.19.22-1.6.65-.41.44-.61,1.03-.61,1.78v10.73h10.1Z"/>
      <path class="cls-1" d="M181.46,128.37c-2.48-1.35-4.4-3.25-5.77-5.7-1.37-2.45-2.05-5.28-2.05-8.5s.68-6.05,2.05-8.5c1.37-2.45,3.29-4.35,5.77-5.7,2.48-1.35,5.31-2.03,8.5-2.03s6.02.68,8.5,2.03c2.48,1.35,4.4,3.25,5.77,5.7,1.37,2.45,2.05,5.28,2.05,8.5s-.68,6.05-2.05,8.5c-1.37,2.45-3.29,4.35-5.77,5.7-2.48,1.35-5.31,2.03-8.5,2.03s-6.02-.68-8.5-2.03ZM196.25,125.37c1.82-1.01,3.24-2.47,4.26-4.39,1.02-1.92,1.53-4.19,1.53-6.81s-.53-4.97-1.58-6.87c-1.05-1.91-2.51-3.36-4.37-4.35-1.86-.99-4-1.49-6.4-1.49s-4.37.51-6.15,1.53c-1.79,1.02-3.17,2.49-4.15,4.39-.98,1.91-1.47,4.17-1.47,6.78s.5,4.88,1.51,6.81c1.01,1.92,2.42,3.39,4.24,4.39,1.82,1.01,3.91,1.51,6.29,1.51s4.47-.5,6.29-1.51Z"/>
      <path class="cls-1" d="M209.84,129.83c-.38-.38-.56-.89-.56-1.56v-19.74c0-3.31.92-5.9,2.77-7.77,1.85-1.88,4.41-2.82,7.68-2.82,1.8,0,3.47.45,5,1.35,1.53.9,2.73,2.13,3.61,3.7.87-1.59,2.06-2.83,3.56-3.72,1.5-.89,3.17-1.33,5-1.33,3.27,0,5.84.94,7.71,2.82,1.86,1.88,2.79,4.47,2.79,7.77v19.74c0,.66-.2,1.18-.59,1.56-.39.38-.92.56-1.58.56s-1.17-.19-1.53-.56c-.36-.38-.54-.89-.54-1.56v-19.74c0-2.37-.5-4.15-1.49-5.32-.99-1.17-2.63-1.76-4.91-1.76-1.98,0-3.54.62-4.66,1.87-1.13,1.25-1.69,2.98-1.69,5.21v19.74c0,.66-.19,1.18-.56,1.56-.38.38-.88.56-1.51.56-.66,0-1.17-.19-1.53-.56-.36-.38-.54-.89-.54-1.56v-19.74c0-2.16-.58-3.88-1.74-5.16-1.16-1.28-2.71-1.92-4.66-1.92-2.25,0-3.88.59-4.87,1.78-.99,1.19-1.49,2.95-1.49,5.3v19.74c0,.66-.2,1.18-.59,1.56-.39.38-.92.56-1.58.56s-1.13-.19-1.51-.56Z"/>
      <path class="cls-1" d="M252.76,129.83c-.38-.38-.56-.89-.56-1.56v-16.99c0-4.18,1.19-7.44,3.56-9.8,2.37-2.36,5.65-3.54,9.83-3.54,2.76,0,5.16.53,7.19,1.6,2.03,1.07,3.58,2.61,4.64,4.62,1.07,2.01,1.6,4.39,1.6,7.12v16.99c0,.66-.2,1.18-.59,1.56-.39.38-.92.56-1.58.56s-1.14-.19-1.53-.56c-.39-.38-.59-.89-.59-1.56v-9.19h-18.3v9.19c0,.66-.19,1.18-.56,1.56-.38.38-.89.56-1.55.56s-1.18-.19-1.55-.56ZM274.74,115.66v-4.51c0-3.12-.78-5.52-2.34-7.19-1.56-1.67-3.83-2.5-6.81-2.5s-5.24.82-6.81,2.46c-1.56,1.64-2.34,4.05-2.34,7.23v4.51h18.3Z"/>
      <path class="cls-1" d="M289.52,128.93c-2.48-.98-4.48-2.34-6.02-4.08-.3-.39-.45-.77-.45-1.13,0-.57.25-1.07.77-1.49.33-.27.68-.41,1.04-.41.54,0,1.1.29,1.67.86,1.29,1.32,2.89,2.35,4.8,3.09,1.91.74,4,1.1,6.29,1.1,2.4,0,4.27-.44,5.61-1.33,1.34-.89,2.01-2.13,2.01-3.72,0-1.47-.66-2.67-1.98-3.58s-3.59-1.72-6.81-2.41c-4.42-.99-7.6-2.24-9.56-3.74-1.95-1.5-2.93-3.49-2.93-5.95,0-1.65.5-3.09,1.49-4.33.99-1.23,2.4-2.19,4.24-2.86,1.83-.68,3.97-1.01,6.4-1.01,2.76,0,5.24.47,7.44,1.42,2.19.95,3.79,2.23,4.78,3.85.24.36.36.74.36,1.13,0,.6-.29,1.1-.86,1.49-.27.18-.59.27-.95.27-.33,0-.66-.08-.99-.25-.33-.16-.6-.38-.81-.65-.87-1.2-2.08-2.13-3.63-2.77-1.55-.65-3.33-.97-5.34-.97-2.55,0-4.5.4-5.84,1.19-1.34.8-2.01,1.96-2.01,3.49,0,.93.27,1.74.81,2.41.54.68,1.43,1.28,2.66,1.8,1.23.53,2.93,1.04,5.09,1.55,4.54,1.05,7.8,2.35,9.78,3.9,1.98,1.55,2.97,3.55,2.97,6.02,0,1.74-.49,3.25-1.46,4.53-.98,1.28-2.37,2.27-4.17,2.97-1.8.71-3.91,1.06-6.31,1.06-2.92,0-5.61-.49-8.09-1.46Z"/>
    </g>
  </g>
</svg>