<?xml version="1.0" encoding="UTF-8"?>
<svg id="Camada_2" xmlns="http://www.w3.org/2000/svg" version="1.1" viewBox="0 0 333.9 168.2">
  <!-- Generator: Adobe Illustrator 30.0.0, SVG Export Plug-In . SVG Version: 2.1.1 Build 123)  -->
  <defs>
    <style>
      .st0 {
        fill: #fff;
      }

      .st1 {
        stroke-width: 1.6px;
      }

      .st1, .st2 {
        fill: none;
        stroke: #fff;
        stroke-miterlimit: 10;
      }

      .st2 {
        stroke-width: 1.5px;
      }
    </style>
  </defs>
  <g id="Conteudo">
    <g>
      <rect x="467" width="333.9" height="168.2"/>
      <g>
        <path class="st1" d="M492.5,86.4c2.4-18.3,18.1-32.4,37-32.4s32,11.9,36.2,27.9"/>
        <path class="st1" d="M543.4,125.5c0,.8,0,1.6,0,2.3-4.2,1.7-8.9,2.6-13.7,2.6-20.6,0-37.3-16.7-37.3-37.3s0-1.6,0-2.3c4.2-1.7,8.9-2.6,13.7-2.6,20.6,0,37.3,16.7,37.3,37.4Z"/>
        <path class="st1" d="M531,95.4c8.4-8.2,20.5-12.4,33-10.1.8.1,1.5.3,2.3.5.9,4.5.9,9.2,0,14-2.3,12.3-10.3,22.1-20.8,27"/>
        <path class="st1" d="M523.9,50.4h10.6c.7,0,1.4-.4,1.7-1.1l3.2-6.1c.4-.8.2-1.7-.3-2.3l-.2-.2c-.4-.4-.9-.6-1.4-.6h-16.9c-.7,0-1.3.4-1.7,1h0c-.3.6-.3,1.3,0,1.9l3.4,6.3c.3.6,1,1,1.7,1h0Z"/>
        <path class="st2" d="M526.4,29.3h5.4c.7,0,1.3.6,1.3,1.3v6.7h-8v-6.7c0-.7.6-1.3,1.3-1.3h0Z"/>
        <circle class="st1" cx="529.1" cy="33.3" r="1.2"/>
      </g>
      <path class="st0" d="M581.1,65.6c0-1.8.5-3.3,1.6-4.4,1.1-1.1,2.6-1.6,4.6-1.6h8.3c8.4,0,12.7,3.4,12.7,10.3s-1,5.7-2.9,7.5c-1.9,1.7-4.8,2.6-8.5,2.6l8.1,8.3c.3.3.5.8.5,1.3s-.2,1.1-.7,1.5c-.4.4-.9.5-1.4.5-.7,0-1.4-.3-1.9-1l-10.2-10.6h-5.6v9.4c0,.7-.2,1.2-.6,1.6s-1,.6-1.7.6-1.2-.2-1.7-.6-.6-.9-.6-1.6v-23.8h0ZM595.8,76.4c2.8,0,4.8-.5,6.1-1.5s1.9-2.7,1.9-5-.6-4.1-2-5.1c-1.3-1-3.3-1.6-6-1.6h-7.9c-.7,0-1.2.2-1.6.7-.4.4-.6,1-.6,1.8v10.7h10.1Z"/>
      <path class="st0" d="M612.2,91.1c-.4-.4-.6-.9-.6-1.6v-17c0-4.2,1.2-7.4,3.6-9.8,2.4-2.4,5.6-3.5,9.8-3.5s5.2.5,7.2,1.6,3.6,2.6,4.6,4.6c1.1,2,1.6,4.4,1.6,7.1v17c0,.7-.2,1.2-.6,1.6s-.9.6-1.6.6-1.1-.2-1.5-.6c-.4-.4-.6-.9-.6-1.6v-9.2h-18.3v9.2c0,.7-.2,1.2-.6,1.6-.4.4-.9.6-1.6.6s-1.2-.2-1.6-.6h0ZM634.2,76.9v-4.5c0-3.1-.8-5.5-2.3-7.2-1.6-1.7-3.8-2.5-6.8-2.5s-5.2.8-6.8,2.5c-1.6,1.6-2.3,4.1-2.3,7.2v4.5h18.3,0Z"/>
      <path class="st0" d="M644.7,91.1c-.4-.4-.6-.9-.6-1.6v-28.2c0-.7.2-1.2.6-1.6.4-.4.9-.6,1.5-.6s1.2.2,1.6.6c.4.4.6.9.6,1.6v28.2c0,.7-.2,1.2-.6,1.6s-.9.6-1.6.6-1.1-.2-1.5-.6ZM644.8,54.6c0-.2,0-.4.1-.6l2.7-6.4c.4-1,1-1.4,1.8-1.4s.7,0,1.1.3c.8.4,1.2.9,1.2,1.5s-.1.6-.3,1l-3.6,6.2c-.4.6-.9.9-1.5.9s-.4,0-.7-.1c-.5-.3-.8-.7-.8-1.3h0Z"/>
      <path class="st0" d="M655.4,90c-.9-.8-1.4-1.9-1.4-3.3s.2-2,.6-2.8c.4-.8,1.2-1.6,2.4-2.5l18.3-14.6c.5-.4.9-.8,1.1-1.2s.3-.8.3-1.3-.1-.8-.4-1-.7-.3-1.4-.3h-17.8c-.7,0-1.3-.2-1.7-.5s-.6-.7-.6-1.2.2-1,.6-1.3c.4-.3,1-.5,1.7-.5h18.5c1.7,0,3,.4,3.9,1.1.9.8,1.4,1.9,1.4,3.4s-.2,2.1-.6,2.8-1.2,1.6-2.4,2.5l-18.3,14.6c-.5.4-.9.8-1.1,1.2s-.3.8-.3,1.3c0,.9.7,1.3,2,1.3h18.8c.7,0,1.2.2,1.6.4.4.3.6.7.6,1.2s-.2,1-.6,1.3-1,.4-1.6.4h-19.7c-1.7,0-3-.4-3.9-1.2h0Z"/>
      <path class="st0" d="M687.2,89.6c-1.1-1.1-1.7-2.5-1.7-4.4v-19.8c0-1.8.5-3.2,1.6-4.3s2.6-1.5,4.5-1.5h14c1.4,0,2.1.6,2.1,1.8s-.2.9-.6,1.2c-.4.3-.9.5-1.6.5h-13.6c-.7,0-1.2.2-1.6.7-.4.5-.6,1-.6,1.8v7.8h12.4c1.4,0,2.1.6,2.1,1.8s-.2,1-.6,1.3c-.4.3-.9.4-1.6.4h-12.4v8.5c0,.8.2,1.3.6,1.8.4.4.9.7,1.6.7h14.6c.7,0,1.2.1,1.6.4s.5.7.5,1.3-.2,1-.6,1.3-.9.4-1.6.4h-14.8c-1.9,0-3.5-.5-4.6-1.6h0Z"/>
      <path class="st0" d="M718.6,90.2c-2.5-1-4.5-2.3-6-4.1-.3-.4-.4-.8-.4-1.1,0-.6.2-1.1.8-1.5.3-.3.7-.4,1-.4.5,0,1.1.3,1.7.9,1.3,1.3,2.9,2.3,4.8,3.1s4,1.1,6.3,1.1,4.3-.4,5.6-1.3,2-2.1,2-3.7-.7-2.7-2-3.6-3.6-1.7-6.8-2.4c-4.4-1-7.6-2.2-9.6-3.7-1.9-1.5-2.9-3.5-2.9-5.9s.5-3.1,1.5-4.3c1-1.2,2.4-2.2,4.2-2.9,1.8-.7,4-1,6.4-1s5.2.5,7.4,1.4c2.2,1,3.8,2.2,4.8,3.9.2.4.4.7.4,1.1,0,.6-.3,1.1-.9,1.5-.3.2-.6.3-1,.3s-.7,0-1-.2c-.3-.2-.6-.4-.8-.7-.9-1.2-2.1-2.1-3.6-2.8-1.5-.7-3.3-1-5.3-1s-4.5.4-5.8,1.2c-1.3.8-2,2-2,3.5s.3,1.7.8,2.4c.5.7,1.4,1.3,2.7,1.8,1.2.5,2.9,1,5.1,1.6,4.5,1.1,7.8,2.3,9.8,3.9s3,3.6,3,6-.5,3.2-1.5,4.5c-1,1.3-2.4,2.3-4.2,3-1.8.7-3.9,1.1-6.3,1.1s-5.6-.5-8.1-1.5h0Z"/>
      <path class="st0" d="M754.8,90.8c-1.4-.6-2.5-1.4-3.2-2.5-.7-1.1-1.1-2.3-1.1-3.8s.5-3.1,1.6-4.3,2.5-2.2,4.5-2.9c-.9-.7-1.7-1.5-2.2-2.3s-.8-1.7-.8-2.6c0-1.7.5-3,1.6-3.9s2.6-1.4,4.5-1.4,3.2.5,4.3,1.4,1.6,2.3,1.6,4-.4,2.2-1.1,3.2c-.7,1-1.8,1.8-3.2,2.4l6.3,6c.5-.8.8-1.6,1.1-2.4s.4-1.8.5-2.9c0-.4.2-.8.5-1,.3-.2.6-.4,1-.4s1,.2,1.3.5.4.8.4,1.2c-.4,2.9-1.2,5.3-2.4,7.1l3.3,3.2c.3.3.5.7.5,1s-.2.7-.5,1c-.3.3-.6.4-1,.4s-.7-.1-.9-.3l-3.3-3.1c-.8.8-1.9,1.6-3.3,2.4s-3.1,1.1-5,1.1-3.6-.3-5-.9h0ZM763.5,88.3c1.1-.5,2-1.2,2.7-2.1l-7.4-7c-1.7.5-3,1.2-3.8,2-.9.8-1.3,1.9-1.3,3.3s.6,2.4,1.7,3.3c1.1.8,2.6,1.3,4.5,1.3s2.5-.2,3.7-.7h0ZM762.6,72.3c0-.9-.3-1.6-.8-2s-1.2-.7-2.2-.7-1.7.2-2.2.7c-.5.5-.8,1.2-.8,2s.2,1.4.6,1.9c.4.6,1.1,1.2,2,1.9,2.1-1,3.2-2.2,3.2-3.8h0Z"/>
      <path class="st0" d="M581.6,129.8c-.4-.4-.6-.9-.6-1.6v-17c0-4.2,1.2-7.4,3.6-9.8,2.4-2.4,5.7-3.5,9.8-3.5s5.2.5,7.2,1.6,3.6,2.6,4.6,4.6c1.1,2,1.6,4.4,1.6,7.1v17c0,.7-.2,1.2-.6,1.6s-.9.6-1.6.6-1.1-.2-1.5-.6c-.4-.4-.6-.9-.6-1.6v-9.2h-18.3v9.2c0,.7-.2,1.2-.6,1.6-.4.4-.9.6-1.6.6s-1.2-.2-1.6-.6h0ZM603.6,115.7v-4.5c0-3.1-.8-5.5-2.3-7.2-1.6-1.7-3.8-2.5-6.8-2.5s-5.2.8-6.8,2.5c-1.6,1.6-2.3,4.1-2.3,7.2v4.5h18.3,0Z"/>
      <path class="st0" d="M612,104.4c0-1.8.5-3.3,1.6-4.4s2.6-1.6,4.6-1.6h8.3c8.4,0,12.7,3.4,12.7,10.3s-1,5.7-2.9,7.5c-1.9,1.7-4.8,2.6-8.5,2.6l8.1,8.3c.3.3.5.8.5,1.3s-.2,1.1-.7,1.5c-.4.4-.9.5-1.4.5-.7,0-1.4-.3-1.9-1l-10.2-10.6h-5.6v9.4c0,.7-.2,1.2-.6,1.6s-1,.6-1.7.6-1.2-.2-1.6-.6-.6-.9-.6-1.6v-23.8h0ZM626.6,115.2c2.8,0,4.8-.5,6.1-1.5s1.9-2.7,1.9-5-.6-4.1-2-5.1-3.3-1.6-6-1.6h-7.9c-.7,0-1.2.2-1.6.7-.4.4-.6,1-.6,1.8v10.7h10.1Z"/>
      <path class="st0" d="M648.5,128.4c-2.5-1.3-4.4-3.2-5.8-5.7-1.4-2.4-2.1-5.3-2.1-8.5s.7-6.1,2.1-8.5c1.4-2.4,3.3-4.3,5.8-5.7,2.5-1.3,5.3-2,8.5-2s6,.7,8.5,2,4.4,3.2,5.8,5.7c1.4,2.4,2.1,5.3,2.1,8.5s-.7,6.1-2.1,8.5c-1.4,2.4-3.3,4.3-5.8,5.7-2.5,1.4-5.3,2-8.5,2s-6-.7-8.5-2ZM663.2,125.4c1.8-1,3.2-2.5,4.3-4.4,1-1.9,1.5-4.2,1.5-6.8s-.5-5-1.6-6.9c-1.1-1.9-2.5-3.4-4.4-4.3s-4-1.5-6.4-1.5-4.4.5-6.1,1.5c-1.8,1-3.2,2.5-4.1,4.4-1,1.9-1.5,4.2-1.5,6.8s.5,4.9,1.5,6.8c1,1.9,2.4,3.4,4.2,4.4,1.8,1,3.9,1.5,6.3,1.5s4.5-.5,6.3-1.5h0Z"/>
      <path class="st0" d="M676.8,129.8c-.4-.4-.6-.9-.6-1.6v-19.7c0-3.3.9-5.9,2.8-7.8,1.9-1.9,4.4-2.8,7.7-2.8s3.5.4,5,1.3,2.7,2.1,3.6,3.7c.9-1.6,2.1-2.8,3.6-3.7s3.2-1.3,5-1.3c3.3,0,5.8.9,7.7,2.8,1.9,1.9,2.8,4.5,2.8,7.8v19.7c0,.7-.2,1.2-.6,1.6s-.9.6-1.6.6-1.2-.2-1.5-.6c-.4-.4-.5-.9-.5-1.6v-19.7c0-2.4-.5-4.2-1.5-5.3s-2.6-1.8-4.9-1.8-3.5.6-4.7,1.9c-1.1,1.2-1.7,3-1.7,5.2v19.7c0,.7-.2,1.2-.6,1.6-.4.4-.9.6-1.5.6s-1.2-.2-1.5-.6c-.4-.4-.5-.9-.5-1.6v-19.7c0-2.2-.6-3.9-1.7-5.2s-2.7-1.9-4.7-1.9-3.9.6-4.9,1.8c-1,1.2-1.5,2.9-1.5,5.3v19.7c0,.7-.2,1.2-.6,1.6s-.9.6-1.6.6-1.1-.2-1.5-.6h0Z"/>
      <path class="st0" d="M719.8,129.8c-.4-.4-.6-.9-.6-1.6v-17c0-4.2,1.2-7.4,3.6-9.8,2.4-2.4,5.7-3.5,9.8-3.5s5.2.5,7.2,1.6,3.6,2.6,4.6,4.6c1.1,2,1.6,4.4,1.6,7.1v17c0,.7-.2,1.2-.6,1.6-.4.4-.9.6-1.6.6s-1.1-.2-1.5-.6c-.4-.4-.6-.9-.6-1.6v-9.2h-18.3v9.2c0,.7-.2,1.2-.6,1.6-.4.4-.9.6-1.6.6s-1.2-.2-1.6-.6h0ZM741.7,115.7v-4.5c0-3.1-.8-5.5-2.3-7.2-1.6-1.7-3.8-2.5-6.8-2.5s-5.2.8-6.8,2.5c-1.6,1.6-2.3,4.1-2.3,7.2v4.5h18.3Z"/>
      <path class="st0" d="M756.5,128.9c-2.5-1-4.5-2.3-6-4.1-.3-.4-.5-.8-.5-1.1,0-.6.2-1.1.8-1.5.3-.3.7-.4,1-.4.5,0,1.1.3,1.7.9,1.3,1.3,2.9,2.3,4.8,3.1,1.9.7,4,1.1,6.3,1.1s4.3-.4,5.6-1.3,2-2.1,2-3.7-.7-2.7-2-3.6-3.6-1.7-6.8-2.4c-4.4-1-7.6-2.2-9.6-3.7-2-1.5-2.9-3.5-2.9-5.9s.5-3.1,1.5-4.3c1-1.2,2.4-2.2,4.2-2.9,1.8-.7,4-1,6.4-1s5.2.5,7.4,1.4c2.2.9,3.8,2.2,4.8,3.8.2.4.4.7.4,1.1,0,.6-.3,1.1-.9,1.5-.3.2-.6.3-1,.3s-.7,0-1-.2c-.3-.2-.6-.4-.8-.7-.9-1.2-2.1-2.1-3.6-2.8-1.5-.7-3.3-1-5.3-1s-4.5.4-5.8,1.2c-1.3.8-2,2-2,3.5s.3,1.7.8,2.4c.5.7,1.4,1.3,2.7,1.8,1.2.5,2.9,1,5.1,1.6,4.5,1.1,7.8,2.3,9.8,3.9s3,3.6,3,6-.5,3.2-1.5,4.5c-1,1.3-2.4,2.3-4.2,3-1.8.7-3.9,1.1-6.3,1.1s-5.6-.5-8.1-1.5h0Z"/>
    </g>
  </g>
</svg>