<svg width="130" height="174" viewBox="0 0 130 174" fill="none" xmlns="http://www.w3.org/2000/svg">
<g clip-path="url(#clip0_2_167)">
<path d="M1.8999 97.82C5.9799 66.88 32.4599 43 64.5199 43C93.8899 43 118.57 63.05 125.64 90.2" stroke="#9CAF88" stroke-width="2.71" stroke-miterlimit="10"/>
<path d="M87.8701 163.86C87.8701 165.17 87.8301 166.48 87.7501 167.78C80.5601 170.63 72.7101 172.19 64.5101 172.19C29.6301 172.19 1.3501 143.91 1.3501 109.03C1.3501 107.72 1.3901 106.41 1.4701 105.11C8.6601 102.26 16.5001 100.7 24.7101 100.7C59.5901 100.7 87.8701 128.98 87.8701 163.86Z" stroke="#9CAF88" stroke-width="2.71" stroke-miterlimit="10"/>
<path d="M66.96 113.05C81.15 99.14 101.67 92.13 122.69 96.01C123.98 96.25 125.26 96.53 126.52 96.84C128.02 104.43 128.13 112.43 126.64 120.49C122.8 141.27 109.2 157.77 91.45 166.15" stroke="#9CAF88" stroke-width="2.71" stroke-miterlimit="10"/>
<path d="M55 36.85H72.86C74.1 36.85 75.23 36.16 75.8 35.07L81.19 24.74C81.86 23.45 81.62 21.88 80.59 20.86L80.19 20.46C79.57 19.84 78.72 19.49 77.84 19.49H49.28C48.09 19.49 47 20.12 46.4 21.15C45.83 22.14 45.81 23.36 46.35 24.37L52.07 35.1C52.65 36.18 53.77 36.86 55 36.86V36.85Z" stroke="#9CAF88" stroke-width="2.71" stroke-miterlimit="10"/>
<path d="M59.21 1.28998H68.33C69.52 1.28998 70.49 2.25998 70.49 3.44998V14.73H57.04V3.44998C57.04 2.25998 58.01 1.28998 59.2 1.28998H59.21Z" stroke="#9CAF88" stroke-width="2.58" stroke-miterlimit="10"/>
<path d="M63.77 10.05C64.8966 10.05 65.81 9.13663 65.81 8.00997C65.81 6.88331 64.8966 5.96997 63.77 5.96997C62.6433 5.96997 61.73 6.88331 61.73 8.00997C61.73 9.13663 62.6433 10.05 63.77 10.05Z" stroke="#9CAF88" stroke-width="2.71" stroke-miterlimit="10"/>
</g>
<defs>
<clipPath id="clip0_2_167">
<rect width="129.06" height="173.54" fill="white"/>
</clipPath>
</defs>
</svg>
