<svg width="335" height="335" viewBox="0 0 335 335" fill="none" xmlns="http://www.w3.org/2000/svg">
<g clip-path="url(#clip0_25_242)">
<path d="M167.51 334.412C259.687 334.412 334.412 259.687 334.412 167.51C334.412 75.3324 259.687 0.607788 167.51 0.607788C75.3325 0.607788 0.60791 75.3324 0.60791 167.51C0.60791 259.687 75.3325 334.412 167.51 334.412Z" fill="black" stroke="black" stroke-width="0.61" stroke-miterlimit="10"/>
<path d="M83.0298 182.449C88.5389 140.729 124.241 108.497 167.49 108.497C207.094 108.497 240.404 135.533 249.932 172.156" stroke="white" stroke-width="1.86" stroke-miterlimit="10"/>
<path d="M198.996 271.517C198.996 273.282 198.938 275.046 198.84 276.791C189.135 280.634 178.567 282.751 167.49 282.751C120.437 282.751 82.3042 244.618 82.3042 197.565C82.3042 195.801 82.363 194.036 82.461 192.291C92.1658 188.449 102.733 186.331 113.81 186.331C160.864 186.331 198.996 224.464 198.996 271.517Z" stroke="white" stroke-width="1.86" stroke-miterlimit="10"/>
<path d="M170.784 202.996C189.919 184.233 217.602 174.783 245.952 180.018C247.697 180.332 249.422 180.724 251.128 181.136C253.147 191.37 253.304 202.153 251.285 213.034C246.109 241.05 227.758 263.322 203.82 274.615" stroke="white" stroke-width="1.86" stroke-miterlimit="10"/>
<path d="M154.649 100.204H178.744C180.41 100.204 181.94 99.2825 182.704 97.7925L189.978 83.8529C190.88 82.1277 190.566 79.9906 189.174 78.6183L188.625 78.0693C187.782 77.2263 186.645 76.7557 185.469 76.7557H146.944C145.336 76.7557 143.866 77.6184 143.062 78.9908C142.297 80.3239 142.258 81.9708 142.983 83.3236L150.708 97.7925C151.492 99.2433 153.002 100.165 154.649 100.165V100.204Z" stroke="white" stroke-width="1.86" stroke-miterlimit="10"/>
<path d="M160.315 52.2488H172.627C174.235 52.2488 175.548 53.5624 175.548 55.17V70.3839H157.413V55.17C157.413 53.5624 158.727 52.2488 160.334 52.2488H160.315Z" stroke="white" stroke-width="1.78" stroke-miterlimit="10"/>
<path d="M166.471 64.071C167.987 64.071 169.216 62.8421 169.216 61.3262C169.216 59.8103 167.987 58.5814 166.471 58.5814C164.955 58.5814 163.726 59.8103 163.726 61.3262C163.726 62.8421 164.955 64.071 166.471 64.071Z" stroke="white" stroke-width="1.86" stroke-miterlimit="10"/>
</g>
<defs>
<clipPath id="clip0_25_242">
<rect width="335" height="335" fill="white"/>
</clipPath>
</defs>
</svg>
