<?xml version="1.0" encoding="UTF-8"?>
<svg id="Camada_2" data-name="Camada 2" xmlns="http://www.w3.org/2000/svg" viewBox="0 0 625.39 163.17">
  <defs>
    <style>
      .cls-1 {
        fill: #fff;
      }

      .cls-2 {
        fill: none;
        stroke: #fff;
        stroke-miterlimit: 10;
        stroke-width: 1.56px;
      }
    </style>
  </defs>
  <g id="Conteudo">
    <rect width="625.39" height="163.17"/>
    <g>
      <path class="cls-2" d="M35.96,81.59c2.85-21.63,21.36-38.32,43.77-38.32,20.53,0,37.78,14.01,42.72,32.99"/>
      <path class="cls-2" d="M96.05,127.74c0,.92-.03,1.83-.08,2.74-5.03,1.99-10.51,3.09-16.24,3.09-24.38,0-44.15-19.77-44.15-44.15,0-.92.03-1.83.08-2.74,5.03-1.99,10.51-3.09,16.24-3.09,24.38,0,44.15,19.77,44.15,44.15Z"/>
      <path class="cls-2" d="M81.43,92.23c9.92-9.72,24.26-14.63,38.96-11.91.9.17,1.8.36,2.68.58,1.05,5.31,1.12,10.9.08,16.53-2.68,14.52-12.19,26.06-24.6,31.92"/>
      <path class="cls-2" d="M73.08,38.96h12.48c.86,0,1.66-.48,2.06-1.25l3.77-7.22c.47-.9.3-2-.42-2.71l-.28-.28c-.44-.44-1.03-.68-1.64-.68h-19.97c-.83,0-1.6.44-2.01,1.16h0c-.4.69-.41,1.54-.04,2.25l4,7.5c.4.76,1.19,1.23,2.05,1.23Z"/>
      <path class="cls-2" d="M76.02,14.11h6.38c.83,0,1.51.68,1.51,1.51v7.89h-9.4v-7.89c0-.83.68-1.51,1.51-1.51Z"/>
      <circle class="cls-2" cx="79.2" cy="18.81" r="1.42"/>
    </g>
    <path class="cls-1" d="M141.55,75.56c0-2.06.61-3.7,1.82-4.91,1.22-1.22,2.96-1.82,5.22-1.82h9.32c9.49,0,14.24,3.85,14.24,11.55,0,3.65-1.1,6.44-3.29,8.38-2.2,1.94-5.39,2.91-9.57,2.91l9.12,9.32c.37.37.56.86.56,1.47,0,.68-.27,1.23-.81,1.67-.51.41-1.03.61-1.57.61-.81,0-1.54-.37-2.18-1.11l-11.45-11.91h-6.28v10.59c0,.78-.24,1.39-.71,1.82-.47.44-1.1.66-1.87.66s-1.39-.22-1.85-.66-.68-1.05-.68-1.82v-26.75ZM158.02,87.66c3.14,0,5.42-.56,6.84-1.67,1.42-1.11,2.13-2.99,2.13-5.62s-.73-4.58-2.2-5.75c-1.47-1.17-3.72-1.75-6.76-1.75h-8.87c-.74,0-1.34.25-1.8.73-.46.49-.68,1.16-.68,2v12.06h11.35Z"/>
    <path class="cls-1" d="M176.47,104.15c-.42-.42-.63-1-.63-1.75v-19.1c0-4.69,1.33-8.37,4-11.02,2.67-2.65,6.35-3.98,11.04-3.98,3.11,0,5.8.6,8.08,1.8,2.28,1.2,4.02,2.93,5.22,5.19,1.2,2.26,1.8,4.93,1.8,8v19.1c0,.74-.22,1.33-.66,1.75-.44.42-1.03.63-1.77.63s-1.28-.21-1.72-.63c-.44-.42-.66-1-.66-1.75v-10.33h-20.57v10.33c0,.74-.21,1.33-.63,1.75-.42.42-1.01.63-1.75.63s-1.33-.21-1.75-.63ZM201.16,88.22v-5.07c0-3.51-.88-6.21-2.63-8.08-1.76-1.87-4.31-2.81-7.65-2.81s-5.89.92-7.65,2.76c-1.76,1.84-2.63,4.55-2.63,8.13v5.07h20.57Z"/>
    <path class="cls-1" d="M212.98,104.15c-.42-.42-.63-1-.63-1.75v-31.71c0-.74.21-1.33.63-1.75.42-.42.99-.63,1.7-.63s1.33.21,1.77.63c.44.42.66,1.01.66,1.75v31.71c0,.74-.22,1.33-.66,1.75-.44.42-1.03.63-1.77.63s-1.27-.21-1.7-.63ZM213.15,63.19c0-.24.05-.47.15-.71l3.04-7.19c.44-1.08,1.1-1.62,1.98-1.62.34,0,.74.1,1.22.3.88.47,1.32,1.05,1.32,1.72,0,.34-.12.71-.35,1.11l-4,6.99c-.4.64-.96.96-1.67.96-.24,0-.49-.05-.76-.15-.61-.3-.91-.78-.91-1.42Z"/>
    <path class="cls-1" d="M225.01,102.96c-1.06-.88-1.6-2.13-1.6-3.75,0-1.22.24-2.26.73-3.14.49-.88,1.38-1.81,2.66-2.79l20.57-16.36c.57-.47.98-.9,1.22-1.29.24-.39.35-.87.35-1.44,0-.51-.15-.89-.46-1.14s-.81-.38-1.52-.38h-19.96c-.78,0-1.41-.17-1.9-.51s-.73-.79-.73-1.37c0-.64.24-1.13.71-1.47.47-.34,1.11-.51,1.93-.51h20.77c1.89,0,3.37.42,4.43,1.27,1.06.84,1.6,2.11,1.6,3.8,0,1.28-.24,2.34-.71,3.17-.47.83-1.37,1.75-2.68,2.76l-20.62,16.36c-.57.47-.97.91-1.19,1.32-.22.41-.33.89-.33,1.47,0,.98.76,1.47,2.28,1.47h21.07c.74,0,1.36.17,1.85.51.49.34.73.79.73,1.37,0,.64-.25,1.13-.73,1.47s-1.11.51-1.85.51h-22.19c-1.89,0-3.37-.44-4.43-1.32Z"/>
    <path class="cls-1" d="M260.82,102.51c-1.25-1.18-1.87-2.82-1.87-4.91v-22.24c0-2.03.61-3.62,1.82-4.79,1.22-1.17,2.9-1.75,5.07-1.75h15.71c1.59,0,2.38.66,2.38,1.98,0,.57-.21,1.03-.63,1.37-.42.34-1.01.51-1.75.51h-15.3c-.78,0-1.39.25-1.85.76-.46.51-.68,1.18-.68,2.03v8.76h13.98c1.59,0,2.38.66,2.38,1.98,0,.61-.21,1.08-.63,1.42-.42.34-1.01.51-1.75.51h-13.98v9.52c0,.84.23,1.52.68,2.03.46.51,1.07.76,1.85.76h16.41c.78,0,1.37.16,1.77.48.41.32.61.8.61,1.44,0,.61-.21,1.08-.63,1.42s-1.01.51-1.75.51h-16.67c-2.2,0-3.92-.59-5.17-1.77Z"/>
    <path class="cls-1" d="M296.08,103.84c-2.79-1.1-5.04-2.63-6.76-4.59-.34-.44-.51-.86-.51-1.27,0-.64.29-1.2.86-1.67.37-.3.76-.46,1.17-.46.61,0,1.23.32,1.87.96,1.45,1.49,3.25,2.64,5.4,3.47,2.14.83,4.5,1.24,7.07,1.24,2.7,0,4.8-.5,6.31-1.49,1.5-1,2.25-2.39,2.25-4.18,0-1.65-.74-3-2.23-4.03s-4.04-1.93-7.65-2.71c-4.97-1.11-8.55-2.52-10.74-4.21-2.2-1.69-3.29-3.92-3.29-6.69,0-1.86.56-3.48,1.67-4.86,1.11-1.38,2.7-2.46,4.76-3.22,2.06-.76,4.46-1.14,7.19-1.14,3.11,0,5.89.53,8.36,1.6,2.46,1.06,4.26,2.51,5.37,4.33.27.4.41.83.41,1.27,0,.68-.32,1.23-.96,1.67-.3.2-.66.3-1.06.3-.37,0-.74-.09-1.11-.28-.37-.18-.68-.43-.91-.73-.98-1.35-2.34-2.39-4.08-3.12-1.74-.73-3.74-1.09-6-1.09-2.87,0-5.06.45-6.56,1.34-1.5.89-2.25,2.2-2.25,3.93,0,1.05.3,1.95.91,2.71.61.76,1.6,1.44,2.99,2.03,1.38.59,3.29,1.17,5.72,1.75,5.1,1.18,8.76,2.64,10.99,4.38,2.23,1.74,3.34,3.99,3.34,6.76,0,1.96-.55,3.66-1.65,5.09-1.1,1.44-2.66,2.55-4.69,3.34-2.03.79-4.39,1.19-7.09,1.19-3.28,0-6.31-.55-9.09-1.65Z"/>
    <path class="cls-1" d="M336.78,103.8c-1.58-.66-2.79-1.59-3.62-2.81-.84-1.22-1.25-2.64-1.25-4.26,0-1.88.59-3.5,1.77-4.86,1.18-1.36,2.87-2.45,5.05-3.28-1.05-.82-1.87-1.68-2.45-2.56s-.87-1.87-.87-2.95c0-1.88.61-3.35,1.83-4.43,1.22-1.08,2.91-1.62,5.07-1.62,2.03,0,3.66.54,4.88,1.62,1.22,1.08,1.83,2.57,1.83,4.47,0,1.29-.41,2.47-1.23,3.55-.82,1.08-2.01,1.99-3.55,2.74l7.1,6.71c.54-.93.94-1.84,1.19-2.76.26-.91.45-1.99.58-3.22.05-.49.22-.87.52-1.16.3-.28.68-.42,1.14-.42.62,0,1.09.2,1.43.6.33.4.48.85.42,1.37-.49,3.32-1.4,5.98-2.74,7.98l3.74,3.55c.36.36.54.73.54,1.12s-.18.76-.54,1.12c-.31.31-.68.46-1.12.46-.41,0-.75-.13-1-.39l-3.74-3.51c-.9.95-2.14,1.84-3.72,2.68-1.58.84-3.46,1.25-5.65,1.25s-4.03-.33-5.61-.98ZM346.48,101.03c1.26-.55,2.28-1.34,3.05-2.37l-8.33-7.87c-1.9.57-3.34,1.32-4.32,2.27-.98.95-1.47,2.17-1.47,3.66s.63,2.75,1.89,3.7c1.26.95,2.94,1.43,5.05,1.43,1.49,0,2.87-.28,4.13-.83ZM345.55,83.08c0-.98-.3-1.74-.89-2.29-.59-.55-1.4-.83-2.43-.83s-1.87.28-2.45.83c-.58.55-.87,1.3-.87,2.26,0,.82.24,1.55.73,2.18.49.63,1.25,1.34,2.27,2.14,2.42-1.1,3.62-2.53,3.62-4.28Z"/>
    <path class="cls-1" d="M376.22,104.85c-.42-.42-.63-1-.63-1.75v-19.1c0-4.69,1.33-8.37,4-11.02,2.67-2.65,6.35-3.98,11.04-3.98,3.11,0,5.8.6,8.08,1.8,2.28,1.2,4.02,2.93,5.22,5.19,1.2,2.26,1.8,4.93,1.8,8v19.1c0,.74-.22,1.33-.66,1.75-.44.42-1.03.63-1.77.63s-1.28-.21-1.72-.63c-.44-.42-.66-1-.66-1.75v-10.33h-20.57v10.33c0,.74-.21,1.33-.63,1.75-.42.42-1.01.63-1.75.63s-1.33-.21-1.75-.63ZM400.92,88.92v-5.07c0-3.51-.88-6.21-2.63-8.08-1.76-1.87-4.31-2.81-7.65-2.81s-5.89.92-7.65,2.76c-1.76,1.84-2.63,4.55-2.63,8.13v5.07h20.57Z"/>
    <path class="cls-1" d="M410.37,76.25c0-2.06.61-3.7,1.82-4.91,1.22-1.22,2.96-1.82,5.22-1.82h9.32c9.49,0,14.24,3.85,14.24,11.55,0,3.65-1.1,6.44-3.29,8.38-2.2,1.94-5.39,2.91-9.57,2.91l9.12,9.32c.37.37.56.86.56,1.47,0,.68-.27,1.23-.81,1.67-.51.41-1.03.61-1.57.61-.81,0-1.54-.37-2.18-1.11l-11.45-11.91h-6.28v10.59c0,.78-.24,1.39-.71,1.82s-1.1.66-1.87.66-1.39-.22-1.85-.66-.68-1.05-.68-1.82v-26.75ZM426.84,88.36c3.14,0,5.42-.56,6.84-1.67,1.42-1.11,2.13-2.99,2.13-5.62s-.73-4.58-2.2-5.75c-1.47-1.17-3.72-1.75-6.76-1.75h-8.87c-.74,0-1.34.25-1.8.73-.46.49-.68,1.16-.68,2v12.06h11.35Z"/>
    <path class="cls-1" d="M451.37,103.21c-2.79-1.52-4.95-3.66-6.48-6.41-1.54-2.75-2.31-5.94-2.31-9.55s.77-6.8,2.31-9.55c1.54-2.75,3.7-4.89,6.48-6.41,2.79-1.52,5.97-2.28,9.55-2.28s6.76.76,9.55,2.28c2.79,1.52,4.95,3.66,6.48,6.41,1.54,2.75,2.3,5.94,2.3,9.55s-.77,6.8-2.3,9.55c-1.54,2.75-3.7,4.89-6.48,6.41-2.79,1.52-5.97,2.28-9.55,2.28s-6.76-.76-9.55-2.28ZM467.99,99.84c2.04-1.13,3.64-2.78,4.79-4.94,1.15-2.16,1.72-4.71,1.72-7.65s-.59-5.58-1.77-7.73c-1.18-2.14-2.82-3.77-4.91-4.89-2.09-1.11-4.49-1.67-7.19-1.67s-4.91.57-6.92,1.72c-2.01,1.15-3.56,2.8-4.66,4.94-1.1,2.14-1.65,4.69-1.65,7.62s.57,5.49,1.7,7.65c1.13,2.16,2.72,3.81,4.76,4.94,2.04,1.13,4.4,1.7,7.07,1.7s5.02-.57,7.07-1.7Z"/>
    <path class="cls-1" d="M483.26,104.85c-.42-.42-.63-1-.63-1.75v-22.19c0-3.72,1.04-6.63,3.12-8.74,2.08-2.11,4.96-3.17,8.64-3.17,2.03,0,3.9.51,5.62,1.52,1.72,1.01,3.07,2.4,4.05,4.15.98-1.79,2.31-3.18,4-4.18,1.69-1,3.56-1.49,5.62-1.49,3.68,0,6.57,1.06,8.66,3.17s3.14,5.02,3.14,8.74v22.19c0,.74-.22,1.33-.66,1.75-.44.42-1.03.63-1.77.63s-1.32-.21-1.72-.63c-.41-.42-.61-1-.61-1.75v-22.19c0-2.67-.56-4.66-1.67-5.98-1.11-1.32-2.96-1.98-5.52-1.98-2.23,0-3.98.7-5.24,2.1-1.27,1.4-1.9,3.35-1.9,5.85v22.19c0,.74-.21,1.33-.63,1.75-.42.42-.99.63-1.7.63-.74,0-1.32-.21-1.72-.63-.41-.42-.61-1-.61-1.75v-22.19c0-2.43-.65-4.36-1.95-5.8-1.3-1.43-3.05-2.15-5.24-2.15-2.53,0-4.36.67-5.47,2-1.11,1.33-1.67,3.32-1.67,5.95v22.19c0,.74-.22,1.33-.66,1.75-.44.42-1.03.63-1.77.63s-1.27-.21-1.7-.63Z"/>
    <path class="cls-1" d="M531.51,104.85c-.42-.42-.63-1-.63-1.75v-19.1c0-4.69,1.33-8.37,4-11.02,2.67-2.65,6.35-3.98,11.04-3.98,3.11,0,5.8.6,8.08,1.8,2.28,1.2,4.02,2.93,5.22,5.19,1.2,2.26,1.8,4.93,1.8,8v19.1c0,.74-.22,1.33-.66,1.75-.44.42-1.03.63-1.77.63s-1.28-.21-1.72-.63c-.44-.42-.66-1-.66-1.75v-10.33h-20.57v10.33c0,.74-.21,1.33-.63,1.75-.42.42-1.01.63-1.75.63s-1.33-.21-1.75-.63ZM556.21,88.92v-5.07c0-3.51-.88-6.21-2.63-8.08-1.76-1.87-4.31-2.81-7.65-2.81s-5.89.92-7.65,2.76c-1.76,1.84-2.63,4.55-2.63,8.13v5.07h20.57Z"/>
    <path class="cls-1" d="M572.82,103.84c-2.79-1.1-5.04-2.63-6.76-4.59-.34-.44-.51-.86-.51-1.27,0-.64.29-1.2.86-1.67.37-.3.76-.46,1.17-.46.61,0,1.23.32,1.87.96,1.45,1.49,3.25,2.64,5.4,3.47,2.14.83,4.5,1.24,7.07,1.24,2.7,0,4.8-.5,6.31-1.49,1.5-1,2.25-2.39,2.25-4.18,0-1.65-.74-3-2.23-4.03s-4.04-1.93-7.65-2.71c-4.97-1.11-8.55-2.52-10.74-4.21-2.2-1.69-3.29-3.92-3.29-6.69,0-1.86.56-3.48,1.67-4.86,1.11-1.38,2.7-2.46,4.76-3.22,2.06-.76,4.46-1.14,7.19-1.14,3.11,0,5.89.53,8.36,1.6,2.46,1.06,4.26,2.51,5.37,4.33.27.4.41.83.41,1.27,0,.68-.32,1.23-.96,1.67-.3.2-.66.3-1.06.3-.37,0-.74-.09-1.11-.28-.37-.18-.68-.43-.91-.73-.98-1.35-2.34-2.39-4.08-3.12-1.74-.73-3.74-1.09-6-1.09-2.87,0-5.06.45-6.56,1.34-1.5.89-2.25,2.2-2.25,3.93,0,1.05.3,1.95.91,2.71.61.76,1.6,1.44,2.99,2.03,1.38.59,3.29,1.17,5.72,1.75,5.1,1.18,8.76,2.64,10.99,4.38,2.23,1.74,3.34,3.99,3.34,6.76,0,1.96-.55,3.66-1.65,5.09-1.1,1.44-2.66,2.55-4.69,3.34-2.03.79-4.39,1.19-7.09,1.19-3.28,0-6.31-.55-9.09-1.65Z"/>
  </g>
</svg>