<svg width="459" height="166" viewBox="0 0 459 166" fill="none" xmlns="http://www.w3.org/2000/svg">
<g clip-path="url(#clip0_24_192)">
<path d="M1.81006 93.03C5.69006 63.61 30.8701 40.89 61.3601 40.89C89.2901 40.89 112.76 59.95 119.49 85.78" stroke="#9CAF88" stroke-width="2.58" stroke-miterlimit="10"/>
<path d="M83.56 155.82C83.56 157.07 83.52 158.31 83.45 159.54C76.61 162.25 69.15 163.74 61.35 163.74C28.18 163.74 1.29004 136.85 1.29004 103.68C1.29004 102.43 1.33004 101.19 1.40004 99.9599C8.24004 97.2499 15.69 95.7599 23.5 95.7599C56.67 95.7599 83.56 122.65 83.56 155.82Z" stroke="#9CAF88" stroke-width="2.58" stroke-miterlimit="10"/>
<path d="M63.6802 107.51C77.1802 94.2799 96.6802 87.6099 116.68 91.3099C117.91 91.5399 119.12 91.7999 120.32 92.0999C121.74 99.3199 121.85 106.92 120.43 114.6C116.78 134.36 103.85 150.06 86.9702 158.03" stroke="#9CAF88" stroke-width="2.58" stroke-miterlimit="10"/>
<path d="M52.3099 35.04H69.2899C70.4699 35.04 71.5399 34.39 72.0899 33.34L77.2099 23.52C77.8499 22.3 77.6199 20.8 76.6399 19.83L76.2599 19.45C75.6699 18.86 74.8699 18.53 74.0299 18.53H46.8699C45.7399 18.53 44.6999 19.13 44.1399 20.11C43.5999 21.05 43.5799 22.21 44.0899 23.17L49.5299 33.38C50.0799 34.41 51.1499 35.05 52.3199 35.05L52.3099 35.04Z" stroke="#9CAF88" stroke-width="2.58" stroke-miterlimit="10"/>
<path d="M56.3 1.22997H64.98C66.11 1.22997 67.04 2.14997 67.04 3.28997V14.02H54.25V3.27997C54.25 2.14997 55.17 1.21997 56.31 1.21997L56.3 1.22997Z" stroke="#9CAF88" stroke-width="2.46" stroke-miterlimit="10"/>
<path d="M60.6402 9.55993C61.7116 9.55993 62.5802 8.69136 62.5802 7.61993C62.5802 6.5485 61.7116 5.67993 60.6402 5.67993C59.5688 5.67993 58.7002 6.5485 58.7002 7.61993C58.7002 8.69136 59.5688 9.55993 60.6402 9.55993Z" stroke="#9CAF88" stroke-width="2.58" stroke-miterlimit="10"/>
<path d="M144.31 59.5701C144.31 56.6201 145.18 54.2801 146.92 52.5401C148.66 50.8001 151.15 49.9301 154.39 49.9301H167.73C181.31 49.9301 188.1 55.4401 188.1 66.4501C188.1 71.67 186.53 75.6701 183.39 78.4401C180.25 81.2201 175.68 82.6101 169.69 82.6101L182.74 95.9501C183.27 96.48 183.54 97.1801 183.54 98.0501C183.54 99.0201 183.15 99.8101 182.38 100.44C181.65 101.02 180.91 101.31 180.13 101.31C178.97 101.31 177.93 100.78 177.01 99.7201L160.63 82.6901H151.64V97.84C151.64 98.9501 151.3 99.82 150.63 100.45C149.95 101.08 149.06 101.39 147.95 101.39C146.84 101.39 145.96 101.08 145.3 100.45C144.64 99.82 144.32 98.9501 144.32 97.84V59.5701H144.31ZM167.87 76.8901C172.36 76.8901 175.63 76.0901 177.65 74.5001C179.68 72.9101 180.69 70.2201 180.69 66.4601C180.69 62.7001 179.64 59.9001 177.54 58.2301C175.44 56.5601 172.21 55.7301 167.86 55.7301H155.18C154.12 55.7301 153.26 56.0801 152.61 56.7801C151.96 57.4801 151.63 58.4401 151.63 59.6401V76.8901H167.86H167.87Z" fill="black"/>
<path d="M194.26 100.48C193.65 99.88 193.35 99.04 193.35 97.98V70.66C193.35 63.94 195.26 58.69 199.08 54.9C202.9 51.11 208.16 49.21 214.88 49.21C219.32 49.21 223.18 50.07 226.44 51.78C229.7 53.5 232.19 55.97 233.9 59.21C235.62 62.45 236.47 66.27 236.47 70.66V97.98C236.47 99.04 236.16 99.88 235.53 100.48C234.9 101.08 234.06 101.39 232.99 101.39C231.92 101.39 231.15 101.09 230.53 100.48C229.9 99.88 229.59 99.04 229.59 97.98V83.19H200.16V97.98C200.16 99.04 199.86 99.88 199.25 100.48C198.65 101.08 197.81 101.39 196.75 101.39C195.69 101.39 194.85 101.09 194.25 100.48H194.26ZM229.59 77.69V70.44C229.59 65.42 228.33 61.56 225.82 58.88C223.31 56.2 219.66 54.86 214.88 54.86C210.1 54.86 206.45 56.18 203.94 58.81C201.43 61.44 200.17 65.32 200.17 70.44V77.69H229.6H229.59Z" fill="black"/>
<path d="M246.5 100.48C245.9 99.88 245.59 99.04 245.59 97.98V52.61C245.59 51.55 245.89 50.71 246.5 50.11C247.1 49.51 247.91 49.2 248.93 49.2C249.95 49.2 250.84 49.5 251.47 50.11C252.1 50.72 252.41 51.55 252.41 52.61V97.98C252.41 99.04 252.09 99.88 251.47 100.48C250.84 101.08 250 101.39 248.93 101.39C247.86 101.39 247.11 101.09 246.5 100.48ZM246.75 41.89C246.75 41.55 246.82 41.21 246.97 40.88L251.32 30.59C251.95 29.04 252.89 28.27 254.15 28.27C254.63 28.27 255.21 28.41 255.89 28.7C257.15 29.38 257.77 30.2 257.77 31.16C257.77 31.64 257.6 32.17 257.26 32.75L251.53 42.75C250.95 43.67 250.15 44.13 249.14 44.13C248.8 44.13 248.44 44.06 248.05 43.91C247.18 43.48 246.75 42.8 246.75 41.88V41.89Z" fill="black"/>
<path d="M263.71 98.7801C262.19 97.5201 261.43 95.7401 261.43 93.4201C261.43 91.6801 261.78 90.1801 262.48 88.9301C263.18 87.6701 264.45 86.3501 266.28 84.9401L295.71 61.5301C296.53 60.8501 297.11 60.2401 297.45 59.6801C297.79 59.1201 297.96 58.4401 297.96 57.6101C297.96 56.8901 297.74 56.3401 297.31 55.9801C296.88 55.6201 296.15 55.4401 295.14 55.4401H266.58C265.47 55.4401 264.56 55.2001 263.86 54.7201C263.16 54.2401 262.81 53.5801 262.81 52.7601C262.81 51.8401 263.15 51.1401 263.82 50.6601C264.5 50.1801 265.41 49.9401 266.57 49.9401H296.28C298.99 49.9401 301.1 50.5501 302.62 51.7501C304.14 52.9601 304.9 54.7701 304.9 57.1901C304.9 59.0301 304.56 60.5401 303.89 61.7201C303.21 62.9101 301.93 64.2201 300.05 65.6701L270.55 89.0801C269.73 89.7601 269.16 90.3801 268.85 90.9601C268.54 91.5401 268.38 92.2401 268.38 93.0601C268.38 94.4601 269.47 95.1601 271.64 95.1601H301.79C302.85 95.1601 303.74 95.4001 304.44 95.8801C305.14 96.3601 305.49 97.0201 305.49 97.8401C305.49 98.7601 305.14 99.4601 304.44 99.9401C303.74 100.42 302.86 100.66 301.79 100.66H270.05C267.34 100.66 265.23 100.03 263.71 98.7801Z" fill="black"/>
<path d="M314.94 98.1301C313.15 96.4401 312.26 94.1001 312.26 91.1001V59.2801C312.26 56.3801 313.13 54.1001 314.87 52.4301C316.61 50.7601 319.02 49.9301 322.12 49.9301H344.59C346.86 49.9301 348 50.8701 348 52.7601C348 53.5801 347.7 54.2301 347.09 54.7201C346.48 55.2001 345.65 55.4401 344.59 55.4401H322.7C321.59 55.4401 320.71 55.8001 320.05 56.5301C319.4 57.2601 319.07 58.2201 319.07 59.4301V71.9701H339.07C341.34 71.9701 342.48 72.9101 342.48 74.8001C342.48 75.6701 342.18 76.3501 341.57 76.8301C340.96 77.3101 340.13 77.5601 339.07 77.5601H319.07V91.1901C319.07 92.4001 319.4 93.3601 320.05 94.09C320.7 94.8101 321.58 95.1801 322.7 95.1801H346.18C347.29 95.1801 348.14 95.4101 348.72 95.8701C349.3 96.3301 349.59 97.0201 349.59 97.9401C349.59 98.8101 349.29 99.4901 348.68 99.9701C348.07 100.45 347.24 100.69 346.18 100.69H322.33C319.19 100.69 316.72 99.8501 314.94 98.1501V98.1301Z" fill="black"/>
<path d="M365.39 99.04C361.4 97.47 358.18 95.28 355.71 92.48C355.23 91.85 354.99 91.25 354.99 90.67C354.99 89.75 355.4 88.95 356.22 88.28C356.75 87.85 357.31 87.63 357.89 87.63C358.76 87.63 359.65 88.09 360.57 89.01C362.65 91.14 365.22 92.79 368.29 93.97C371.36 95.15 374.73 95.75 378.4 95.75C382.26 95.75 385.27 95.04 387.42 93.61C389.57 92.19 390.64 90.19 390.64 87.63C390.64 85.26 389.58 83.34 387.45 81.87C385.32 80.4 381.68 79.1 376.51 77.99C369.41 76.4 364.28 74.39 361.14 71.97C358 69.55 356.43 66.37 356.43 62.4C356.43 59.74 357.23 57.42 358.82 55.44C360.41 53.46 362.69 51.92 365.63 50.84C368.58 49.75 372.01 49.21 375.92 49.21C380.37 49.21 384.35 49.97 387.88 51.49C391.41 53.01 393.97 55.08 395.56 57.69C395.95 58.27 396.14 58.87 396.14 59.5C396.14 60.47 395.68 61.26 394.76 61.89C394.33 62.18 393.82 62.32 393.24 62.32C392.71 62.32 392.18 62.19 391.65 61.92C391.12 61.66 390.68 61.3 390.35 60.87C388.95 58.94 387 57.45 384.52 56.41C382.03 55.37 379.17 54.85 375.93 54.85C371.82 54.85 368.69 55.49 366.54 56.77C364.39 58.05 363.31 59.92 363.31 62.39C363.31 63.89 363.74 65.18 364.61 66.27C365.48 67.36 366.91 68.32 368.89 69.17C370.87 70.02 373.6 70.85 377.08 71.67C384.38 73.36 389.62 75.45 392.81 77.94C396 80.43 397.59 83.65 397.59 87.62C397.59 90.42 396.8 92.85 395.24 94.9C393.67 96.95 391.43 98.55 388.54 99.68C385.64 100.82 382.26 101.38 378.39 101.38C373.7 101.38 369.37 100.6 365.38 99.03L365.39 99.04Z" fill="black"/>
<path d="M423.61 99.98C421.35 99.04 419.62 97.7 418.42 95.95C417.23 94.2 416.63 92.17 416.63 89.85C416.63 87.17 417.48 84.85 419.17 82.9C420.86 80.95 423.27 79.39 426.4 78.21C424.89 77.03 423.72 75.81 422.9 74.54C422.07 73.27 421.66 71.86 421.66 70.32C421.66 67.64 422.53 65.52 424.28 63.98C426.03 62.44 428.44 61.66 431.53 61.66C434.44 61.66 436.76 62.43 438.51 63.98C440.26 65.52 441.13 67.66 441.13 70.38C441.13 72.22 440.54 73.91 439.36 75.45C438.18 76.99 436.49 78.3 434.28 79.37L444.43 88.97C445.2 87.65 445.77 86.33 446.14 85.03C446.51 83.73 446.78 82.19 446.97 80.42C447.04 79.72 447.29 79.17 447.71 78.77C448.13 78.37 448.68 78.16 449.34 78.16C450.22 78.16 450.9 78.45 451.38 79.02C451.86 79.59 452.06 80.24 451.99 80.98C451.29 85.72 449.98 89.53 448.07 92.4L453.42 97.47C453.93 97.99 454.19 98.52 454.19 99.07C454.19 99.62 453.93 100.16 453.42 100.67C452.98 101.11 452.45 101.33 451.82 101.33C451.23 101.33 450.75 101.15 450.39 100.78L445.04 95.76C443.75 97.12 441.98 98.4 439.72 99.59C437.46 100.79 434.76 101.38 431.64 101.38C428.52 101.38 425.88 100.91 423.61 99.97V99.98ZM437.49 96.01C439.29 95.22 440.75 94.09 441.85 92.62L429.93 81.37C427.21 82.18 425.15 83.26 423.75 84.62C422.35 85.98 421.65 87.73 421.65 89.86C421.65 91.99 422.55 93.8 424.35 95.16C426.15 96.52 428.56 97.2 431.58 97.2C433.71 97.2 435.68 96.81 437.48 96.01H437.49ZM436.16 70.33C436.16 68.93 435.74 67.84 434.89 67.05C434.04 66.26 432.89 65.86 431.42 65.86C429.95 65.86 428.74 66.26 427.92 67.05C427.09 67.84 426.68 68.92 426.68 70.28C426.68 71.46 427.03 72.5 427.73 73.4C428.43 74.3 429.51 75.32 430.98 76.46C434.44 74.88 436.17 72.84 436.17 70.34L436.16 70.33Z" fill="black"/>
<path d="M145.07 162.84C144.46 162.24 144.16 161.4 144.16 160.34V133.02C144.16 126.3 146.07 121.05 149.89 117.26C153.71 113.47 158.97 111.57 165.69 111.57C170.14 111.57 173.99 112.43 177.25 114.14C180.51 115.86 183 118.33 184.71 121.57C186.43 124.81 187.28 128.63 187.28 133.02V160.34C187.28 161.4 186.97 162.24 186.34 162.84C185.71 163.44 184.87 163.75 183.8 163.75C182.73 163.75 181.96 163.45 181.34 162.84C180.71 162.24 180.4 161.4 180.4 160.34V145.55H150.97V160.34C150.97 161.4 150.67 162.24 150.06 162.84C149.45 163.44 148.62 163.75 147.56 163.75C146.5 163.75 145.66 163.45 145.06 162.84H145.07ZM180.41 140.05V132.8C180.41 127.78 179.15 123.92 176.64 121.24C174.13 118.56 170.48 117.22 165.7 117.22C160.92 117.22 157.27 118.54 154.76 121.17C152.25 123.8 150.99 127.68 150.99 132.8V140.05H180.42H180.41Z" fill="black"/>
<path d="M193.94 121.93C193.94 118.98 194.81 116.64 196.55 114.9C198.29 113.16 200.78 112.29 204.01 112.29H217.35C230.93 112.29 237.72 117.8 237.72 128.81C237.72 134.03 236.15 138.03 233.01 140.8C229.87 143.58 225.3 144.97 219.31 144.97L232.36 158.31C232.89 158.84 233.16 159.54 233.16 160.41C233.16 161.38 232.77 162.17 232 162.8C231.27 163.38 230.53 163.67 229.75 163.67C228.59 163.67 227.55 163.14 226.63 162.08L210.25 145.05H201.26V160.2C201.26 161.31 200.92 162.18 200.25 162.81C199.58 163.44 198.68 163.75 197.57 163.75C196.46 163.75 195.58 163.44 194.92 162.81C194.26 162.18 193.94 161.31 193.94 160.2V121.93ZM217.49 139.25C221.98 139.25 225.25 138.45 227.27 136.86C229.3 135.27 230.31 132.58 230.31 128.82C230.31 125.06 229.26 122.26 227.16 120.59C225.06 118.92 221.83 118.09 217.48 118.09H204.8C203.74 118.09 202.88 118.44 202.23 119.14C201.58 119.84 201.25 120.8 201.25 122V139.25H217.49Z" fill="black"/>
<path d="M252.58 160.48C248.59 158.31 245.5 155.25 243.3 151.31C241.1 147.37 240 142.82 240 137.65C240 132.48 241.1 127.93 243.3 123.99C245.5 120.05 248.59 117 252.58 114.82C256.57 112.65 261.12 111.56 266.24 111.56C271.36 111.56 275.92 112.65 279.9 114.82C283.88 116.99 286.98 120.05 289.18 123.99C291.38 127.93 292.48 132.48 292.48 137.65C292.48 142.82 291.38 147.37 289.18 151.31C286.98 155.25 283.89 158.3 279.9 160.48C275.91 162.65 271.36 163.74 266.24 163.74C261.12 163.74 256.56 162.65 252.58 160.48ZM276.36 155.66C279.28 154.04 281.57 151.69 283.21 148.59C284.85 145.5 285.67 141.85 285.67 137.65C285.67 133.45 284.82 129.67 283.13 126.6C281.44 123.53 279.1 121.2 276.1 119.61C273.1 118.02 269.67 117.22 265.81 117.22C261.95 117.22 258.79 118.04 255.92 119.68C253.04 121.32 250.82 123.68 249.25 126.75C247.68 129.82 246.89 133.45 246.89 137.66C246.89 141.87 247.7 145.51 249.32 148.6C250.94 151.69 253.21 154.05 256.13 155.67C259.05 157.29 262.42 158.1 266.24 158.1C270.06 158.1 273.43 157.29 276.35 155.67L276.36 155.66Z" fill="black"/>
<path d="M298.21 162.84C297.61 162.24 297.3 161.4 297.3 160.34V128.6C297.3 123.29 298.79 119.12 301.76 116.1C304.73 113.08 308.85 111.57 314.12 111.57C317.02 111.57 319.7 112.29 322.16 113.74C324.62 115.19 326.56 117.17 327.96 119.68C329.36 117.12 331.27 115.13 333.69 113.7C336.11 112.28 338.79 111.56 341.73 111.56C347 111.56 351.13 113.07 354.12 116.09C357.12 119.11 358.61 123.28 358.61 128.59V160.33C358.61 161.39 358.29 162.23 357.67 162.83C357.04 163.43 356.2 163.74 355.13 163.74C354.06 163.74 353.25 163.44 352.67 162.83C352.09 162.23 351.8 161.39 351.8 160.33V128.59C351.8 124.77 351 121.92 349.41 120.04C347.82 118.16 345.18 117.21 341.51 117.21C338.32 117.21 335.82 118.21 334.01 120.22C332.2 122.23 331.29 125.02 331.29 128.59V160.33C331.29 161.39 330.99 162.23 330.38 162.83C329.77 163.43 328.97 163.74 327.95 163.74C326.89 163.74 326.07 163.44 325.49 162.83C324.91 162.23 324.62 161.39 324.62 160.33V128.59C324.62 125.11 323.69 122.35 321.83 120.29C319.97 118.24 317.47 117.21 314.33 117.21C310.71 117.21 308.1 118.17 306.5 120.07C304.91 121.98 304.11 124.82 304.11 128.59V160.33C304.11 161.39 303.8 162.23 303.17 162.83C302.54 163.43 301.7 163.74 300.63 163.74C299.56 163.74 298.81 163.44 298.2 162.83L298.21 162.84Z" fill="black"/>
<path d="M367.24 162.84C366.63 162.24 366.33 161.4 366.33 160.34V133.02C366.33 126.3 368.24 121.05 372.06 117.26C375.88 113.47 381.14 111.57 387.86 111.57C392.3 111.57 396.16 112.43 399.42 114.14C402.68 115.86 405.17 118.33 406.88 121.57C408.6 124.81 409.45 128.63 409.45 133.02V160.34C409.45 161.4 409.14 162.24 408.51 162.84C407.88 163.44 407.04 163.75 405.97 163.75C404.9 163.75 404.13 163.45 403.51 162.84C402.88 162.24 402.57 161.4 402.57 160.34V145.55H373.14V160.34C373.14 161.4 372.84 162.24 372.23 162.84C371.63 163.44 370.79 163.75 369.73 163.75C368.67 163.75 367.83 163.45 367.23 162.84H367.24ZM402.57 140.05V132.8C402.57 127.78 401.31 123.92 398.8 121.24C396.29 118.56 392.64 117.22 387.86 117.22C383.08 117.22 379.43 118.54 376.92 121.17C374.41 123.8 373.15 127.68 373.15 132.8V140.05H402.58H402.57Z" fill="black"/>
<path d="M426.34 161.39C422.35 159.82 419.13 157.63 416.66 154.83C416.18 154.2 415.94 153.6 415.94 153.02C415.94 152.1 416.35 151.3 417.17 150.63C417.7 150.2 418.26 149.98 418.84 149.98C419.71 149.98 420.6 150.44 421.52 151.36C423.6 153.49 426.17 155.14 429.24 156.32C432.31 157.5 435.68 158.1 439.35 158.1C443.21 158.1 446.22 157.39 448.37 155.96C450.52 154.54 451.59 152.54 451.59 149.98C451.59 147.61 450.53 145.69 448.4 144.22C446.27 142.75 442.63 141.45 437.46 140.34C430.36 138.75 425.23 136.74 422.09 134.32C418.95 131.9 417.38 128.72 417.38 124.75C417.38 122.09 418.18 119.77 419.77 117.79C421.36 115.81 423.64 114.27 426.58 113.19C429.53 112.1 432.96 111.56 436.87 111.56C441.32 111.56 445.3 112.32 448.83 113.84C452.36 115.36 454.92 117.43 456.51 120.04C456.9 120.62 457.09 121.22 457.09 121.85C457.09 122.82 456.63 123.61 455.71 124.24C455.28 124.53 454.77 124.67 454.19 124.67C453.66 124.67 453.13 124.54 452.6 124.27C452.07 124.01 451.63 123.65 451.3 123.22C449.9 121.29 447.95 119.8 445.47 118.76C442.98 117.72 440.12 117.2 436.88 117.2C432.77 117.2 429.64 117.84 427.49 119.12C425.34 120.4 424.26 122.27 424.26 124.74C424.26 126.24 424.69 127.53 425.56 128.62C426.43 129.71 427.86 130.67 429.84 131.52C431.82 132.37 434.55 133.2 438.03 134.02C445.33 135.71 450.57 137.8 453.76 140.29C456.95 142.78 458.54 146 458.54 149.97C458.54 152.77 457.75 155.2 456.19 157.25C454.62 159.3 452.38 160.9 449.49 162.03C446.59 163.17 443.21 163.73 439.34 163.73C434.65 163.73 430.32 162.95 426.33 161.38L426.34 161.39Z" fill="black"/>
</g>
<defs>
<clipPath id="clip0_24_192">
<rect width="458.55" height="165.03" fill="white"/>
</clipPath>
</defs>
</svg>
